<?xml version="1.0" encoding="UTF-8"?>
<svg id="Layer_2" xmlns="http://www.w3.org/2000/svg" viewBox="0 0 255.06 233.06">
  <defs>
    <style>
      .cls-1 {
        fill: #fff;
      }

      .cls-2 {
        fill: #3953a4;
      }
    </style>
  </defs>
  <g id="Layer_1-2" data-name="Layer_1">
    <path class="cls-2" d="M255.06,163.22l-188.07,69.83H0V0h255.06v163.22Z"/>
    <g>
      <g>
        <path class="cls-1" d="M18.52,52.19v-10.67h25.58v4.31c5.74-3.42,11.45-5.13,17.13-5.13,6.8,0,12.07,2.4,15.82,7.2,6.8-4.8,13.91-7.2,21.33-7.2,4.4,0,7.97.81,10.72,2.43,2.75,1.62,4.63,3.79,5.65,6.52,1.02,2.73,1.53,6.85,1.53,12.38v20.13h8.73v12.16h-25.58v-30.92c0-5.53-2.38-8.29-7.15-8.29-3.74,0-7.8,1.2-12.16,3.6v23.45h8.73v12.16h-22.58v-30.43c0-5.85-5.29-8.78-9.87-8.78-3.56,0-7.65,1.2-12.27,3.6v23.45h8.73v12.16H18.52v-12.16h8.73v-29.96h-8.73Z"/>
        <path class="cls-1" d="M129.73,94.32v-12.16h8.51V30.61h-8.51v-12.16h25.31v47.91l18.13-14.17h-11.15v-10.67h31.91v10.67h-5.29l-15.44,13.2,14.07,16.76h7.31v12.16h-16.2l-23.34-27.95v16.39h6.38v11.56h-31.69Z"/>
        <path class="cls-1" d="M200.2,52.19v-10.67h6.71v-8.29l16.85-12.11v20.4h9.71v10.67h-9.71v24.39c0,2.08.26,3.47.79,4.18.53.71,1.74,1.07,3.63,1.07,1.56,0,3.33-.36,5.29-1.09v11.67c-4.33,1.78-8.56,2.67-12.71,2.67-9.24,0-13.85-4.59-13.85-13.76v-29.13h-6.71Z"/>
      </g>
      <g>
        <path class="cls-1" d="M24.59,145.17v-39.79h-6.1v-6.32h13.2v5.68c3.54-4.16,7.83-6.24,12.86-6.24s9.29,1.75,12.62,5.24c3.33,3.49,4.99,8.03,4.99,13.61,0,5.86-1.81,10.48-5.42,13.87-3.61,3.39-7.73,5.09-12.34,5.09s-9.02-1.84-12.71-5.53v14.4h7.03v6.32h-20.75v-6.32h6.62ZM31.58,117.69c0,1.99.41,3.9,1.23,5.72.82,1.82,2.13,3.35,3.93,4.58,1.8,1.23,3.9,1.85,6.32,1.85,3.39,0,6.19-1.13,8.4-3.4,2.21-2.27,3.31-5.38,3.31-9.35s-1.15-6.88-3.46-9.05c-2.31-2.17-4.93-3.25-7.87-3.25-3.14,0-5.9,1.18-8.28,3.53-2.38,2.36-3.57,5.48-3.57,9.37Z"/>
        <path class="cls-1" d="M74.28,128.94v-23.56h-7.29v-6.32h12.98v8.15c.8-2.12,1.91-3.88,3.33-5.27,1.42-1.4,2.92-2.32,4.51-2.77,1.58-.45,3.75-.67,6.49-.67h1.87v7.18h-1.42c-3.61,0-6.31.36-8.1,1.08-1.78.72-3.1,2.04-3.96,3.95s-1.29,5.33-1.29,10.26v7.97h7.89v6.32h-22.29v-6.32h7.29Z"/>
        <path class="cls-1" d="M135.01,128.94v6.32h-12.41v-4.41c-3.44,3.34-7.28,5.01-11.52,5.01-3.29,0-6.15-1.07-8.58-3.22-2.43-2.14-3.65-4.89-3.65-8.23s1.29-6.16,3.87-8.38c2.58-2.22,5.69-3.33,9.33-3.33,3.39,0,6.67,1.02,9.83,3.07v-3.59c0-1.84-.17-3.27-.52-4.26-.35-1-1.17-1.89-2.45-2.69-1.28-.8-2.96-1.2-5.03-1.2-3.57,0-6.15,1.42-7.74,4.26l-6.81-1.8c3.02-5.63,8.23-8.45,15.63-8.45,2.72,0,5.07.37,7.05,1.1,1.98.74,3.46,1.68,4.43,2.84s1.63,2.41,1.96,3.76c.34,1.35.51,3.49.51,6.43v16.75h6.09ZM121.88,121.8c-3.07-2.39-6.17-3.59-9.31-3.59-1.97,0-3.61.57-4.94,1.72-1.32,1.15-1.98,2.63-1.98,4.45,0,1.7.58,3.12,1.74,4.26,1.16,1.15,2.74,1.72,4.73,1.72,3.44,0,6.69-1.45,9.76-4.34v-4.23Z"/>
        <path class="cls-1" d="M157.4,120.83l-7.15,8.12h4.66v6.32h-17.54v-6.32h5.33l10.87-12.28-10.39-11.28h-4.88v-6.32h16.98v6.32h-4.51l6.51,7.09,6.28-7.09h-3.68v-6.32h17.09v6.32h-5.96l-9.91,11.25,11.29,12.31h4.58v6.32h-17.09v-6.32h4.99l-7.47-8.12Z"/>
        <path class="cls-1" d="M186.35,128.94v-23.56h-5.61v-6.32h12.71v29.88h5.61v6.32h-18.32v-6.32h5.61Z"/>
        <path class="cls-1" d="M203.74,135.26v-12.41h6.36v1.2c.22,1.7,1.14,3.09,2.75,4.19,1.61,1.1,3.51,1.65,5.7,1.65s4.13-.4,5.5-1.2c1.37-.8,2.06-1.91,2.06-3.33s-.57-2.38-1.7-3.03c-1.13-.65-3.38-1.24-6.75-1.79-4.99-.84-8.55-2.2-10.68-4.09-2.13-1.88-3.2-4.32-3.2-7.32s1.16-5.54,3.48-7.58,5.37-3.05,9.16-3.05c3.42,0,6.36.7,8.83,2.11v-1.55h6.32v12h-6.32v-2.21c-1.92-2.97-4.71-4.45-8.38-4.45-1.87,0-3.41.41-4.62,1.22-1.21.81-1.81,1.89-1.81,3.23s.55,2.31,1.66,2.82c1.11.51,3.5,1.05,7.16,1.62,3.51.55,6.17,1.19,7.96,1.92,1.79.74,3.28,1.96,4.47,3.67,1.18,1.71,1.78,3.7,1.78,5.97,0,3.37-1.29,6.04-3.87,8.02-2.58,1.98-5.93,2.97-10.04,2.97-3.86,0-7.02-.88-9.46-2.63v2.03h-6.36Z"/>
      </g>
    </g>
    <rect class="cls-1" x="66.99" y="141.35" width="21.73" height="21.73"/>
    <rect class="cls-1" x="95" y="141.35" width="21.73" height="21.73"/>
    <rect class="cls-1" x="151.03" y="141.35" width="21.73" height="21.73"/>
    <rect class="cls-1" x="66.99" y="169.69" width="21.73" height="21.73"/>
    <rect class="cls-1" x="95" y="169.69" width="21.73" height="21.73"/>
    <rect class="cls-1" x="123.01" y="169.69" width="21.73" height="21.73"/>
    <circle class="cls-1" cx="189.9" cy="152.21" r="10.86"/>
  </g>
</svg>