<?xml version="1.0" encoding="UTF-8"?>
<svg id="Layer_2" xmlns="http://www.w3.org/2000/svg" viewBox="0 0 203.21 194.49">
  <defs>
    <style>
      .cls-1 {
        fill: #fff;
      }

      .cls-2 {
        fill: #3953a4;
      }
    </style>
  </defs>
  <g id="Layer_1-2" data-name="Layer_1">
    <path class="cls-2" d="M203.21,130.05l-149.84,55.64H0V0h203.21v130.05Z"/>
    <g>
      <path class="cls-1" d="M30.03,30.91v-14.38h34.48v5.81c7.74-4.61,15.44-6.91,23.09-6.91,9.16,0,16.27,3.23,21.32,9.71,9.16-6.47,18.75-9.71,28.75-9.71,5.93,0,10.75,1.09,14.45,3.27,3.7,2.18,6.24,5.11,7.61,8.79,1.37,3.68,2.06,9.24,2.06,16.69v27.13h11.76v16.4h-34.48v-41.69c0-7.45-3.21-11.18-9.63-11.18-5.05,0-10.51,1.62-16.4,4.85v31.62h11.76v16.4h-30.44v-41.03c0-7.89-7.13-11.84-13.31-11.84-4.8,0-10.32,1.62-16.54,4.85v31.62h11.76v16.4H30.03v-16.4h11.76V30.91h-11.76Z"/>
      <g>
        <path class="cls-1" d="M35.3,135.6v-36.2h-5.55v-5.75h12.01v5.17c3.22-3.79,7.12-5.68,11.7-5.68s8.45,1.59,11.48,4.76c3.03,3.18,4.54,7.3,4.54,12.38,0,5.33-1.65,9.54-4.93,12.62-3.29,3.08-7.03,4.63-11.23,4.63s-8.21-1.68-11.57-5.04v13.1h6.4v5.75h-18.88v-5.75h6.02ZM41.66,110.6c0,1.81.37,3.55,1.12,5.21.75,1.66,1.94,3.04,3.57,4.17,1.63,1.12,3.55,1.68,5.75,1.68,3.08,0,5.63-1.03,7.64-3.1,2.01-2.06,3.01-4.9,3.01-8.51s-1.05-6.26-3.15-8.23c-2.1-1.97-4.49-2.96-7.16-2.96-2.86,0-5.37,1.07-7.54,3.22-2.17,2.14-3.25,4.98-3.25,8.52Z"/>
        <path class="cls-1" d="M80.51,120.84v-21.43h-6.63v-5.75h11.81v7.42c.73-1.93,1.74-3.53,3.03-4.8,1.29-1.27,2.66-2.11,4.1-2.52,1.44-.41,3.41-.61,5.9-.61h1.7v6.53h-1.29c-3.29,0-5.74.33-7.37.99-1.62.66-2.82,1.85-3.61,3.59s-1.17,4.85-1.17,9.34v7.25h7.18v5.75h-20.28v-5.75h6.63Z"/>
        <path class="cls-1" d="M135.76,120.84v5.75h-11.29v-4.01c-3.13,3.04-6.62,4.56-10.48,4.56-2.99,0-5.6-.98-7.81-2.93-2.21-1.95-3.32-4.44-3.32-7.48s1.17-5.6,3.52-7.62c2.35-2.02,5.18-3.03,8.49-3.03,3.08,0,6.07.93,8.95,2.79v-3.27c0-1.68-.16-2.97-.48-3.88-.32-.91-1.06-1.72-2.23-2.45-1.17-.73-2.69-1.09-4.58-1.09-3.24,0-5.59,1.29-7.04,3.88l-6.19-1.63c2.74-5.13,7.48-7.69,14.22-7.69,2.47,0,4.61.34,6.41,1,1.8.67,3.15,1.53,4.03,2.59s1.48,2.19,1.79,3.42c.31,1.22.46,3.18.46,5.85v15.24h5.54ZM123.82,114.34c-2.79-2.18-5.61-3.27-8.47-3.27-1.79,0-3.29.52-4.49,1.56-1.2,1.04-1.8,2.39-1.8,4.05,0,1.54.53,2.84,1.58,3.88,1.05,1.04,2.49,1.56,4.3,1.56,3.13,0,6.09-1.32,8.88-3.95v-3.84Z"/>
        <path class="cls-1" d="M156.13,113.46l-6.5,7.38h4.24v5.75h-15.96v-5.75h4.85l9.89-11.17-9.45-10.26h-4.44v-5.75h15.45v5.75h-4.1l5.92,6.45,5.71-6.45h-3.35v-5.75h15.55v5.75h-5.43l-9.02,10.23,10.27,11.2h4.17v5.75h-15.55v-5.75h4.54l-6.8-7.38Z"/>
      </g>
    </g>
    <rect class="cls-1" x="115.8" y="170.3" width="24.19" height="24.19"/>
  </g>
</svg>