<?xml version="1.0" encoding="UTF-8"?>
<svg id="Layer_2" xmlns="http://www.w3.org/2000/svg" viewBox="0 0 118.45 108.23">
  <defs>
    <style>
      .cls-1 {
        fill: #fff;
      }

      .cls-2 {
        fill: #f8991d;
      }
    </style>
  </defs>
  <g id="Layer_1-2" data-name="Layer_1">
    <g>
      <path class="cls-2" d="M118.45,75.8L31.11,108.23H0V0h118.45v75.8Z"/>
      <g>
        <path class="cls-1" d="M11.42,35.66v-18.48h-2.83v-2.93h6.13v2.64c1.64-1.93,3.64-2.9,5.97-2.9s4.32.81,5.86,2.43c1.55,1.62,2.32,3.73,2.32,6.32,0,2.72-.84,4.87-2.52,6.44-1.68,1.57-3.59,2.36-5.73,2.36s-4.19-.86-5.9-2.57v6.69h3.26v2.93h-9.64v-2.93h3.07ZM14.66,22.89c0,.93.19,1.81.57,2.66.38.85.99,1.55,1.82,2.13.83.57,1.81.86,2.93.86,1.57,0,2.87-.53,3.9-1.58,1.02-1.05,1.54-2.5,1.54-4.34s-.54-3.2-1.61-4.2c-1.07-1.01-2.29-1.51-3.66-1.51-1.46,0-2.74.55-3.85,1.64-1.11,1.09-1.66,2.54-1.66,4.35Z"/>
        <path class="cls-1" d="M34.5,28.12v-10.94h-3.39v-2.93h6.03v3.79c.37-.98.89-1.8,1.55-2.45.66-.65,1.36-1.08,2.09-1.28.74-.21,1.74-.31,3.01-.31h.87v3.33h-.66c-1.68,0-2.93.17-3.76.5-.83.34-1.44.95-1.84,1.83s-.6,2.47-.6,4.77v3.7h3.66v2.93h-10.35v-2.93h3.39Z"/>
        <path class="cls-1" d="M62.7,28.12v2.93h-5.77v-2.05c-1.6,1.55-3.38,2.33-5.35,2.33-1.53,0-2.86-.5-3.99-1.49-1.13-1-1.69-2.27-1.69-3.82s.6-2.86,1.8-3.89c1.2-1.03,2.64-1.55,4.33-1.55,1.57,0,3.1.47,4.57,1.42v-1.67c0-.86-.08-1.52-.24-1.98-.16-.46-.54-.88-1.14-1.25-.6-.37-1.37-.56-2.34-.56-1.66,0-2.85.66-3.59,1.98l-3.16-.83c1.4-2.62,3.82-3.92,7.26-3.92,1.26,0,2.35.17,3.27.51.92.34,1.61.78,2.06,1.32s.76,1.12.91,1.75c.16.63.23,1.62.23,2.99v7.78h2.83ZM56.6,24.8c-1.42-1.11-2.87-1.67-4.32-1.67-.91,0-1.68.27-2.29.8-.61.53-.92,1.22-.92,2.07,0,.79.27,1.45.81,1.98.54.53,1.27.8,2.2.8,1.6,0,3.11-.67,4.53-2.01v-1.96Z"/>
        <path class="cls-1" d="M73.09,24.35l-3.32,3.77h2.16v2.93h-8.14v-2.93h2.47l5.05-5.7-4.82-5.24h-2.27v-2.93h7.88v2.93h-2.09l3.02,3.29,2.92-3.29h-1.71v-2.93h7.94v2.93h-2.77l-4.6,5.22,5.24,5.72h2.13v2.93h-7.94v-2.93h2.32l-3.47-3.77Z"/>
        <path class="cls-1" d="M86.54,28.12v-10.94h-2.6v-2.93h5.9v13.87h2.6v2.93h-8.51v-2.93h2.6Z"/>
        <path class="cls-1" d="M94.61,31.05v-5.77h2.95v.56c.1.79.53,1.44,1.28,1.94.75.51,1.63.76,2.65.76s1.92-.18,2.55-.56c.64-.37.96-.89.96-1.55s-.26-1.11-.79-1.41c-.53-.3-1.57-.58-3.13-.83-2.32-.39-3.97-1.02-4.96-1.9-.99-.87-1.48-2.01-1.48-3.4s.54-2.57,1.62-3.52,2.49-1.42,4.25-1.42c1.59,0,2.95.33,4.1.98v-.72h2.93v5.57h-2.93v-1.02c-.89-1.38-2.19-2.07-3.89-2.07-.87,0-1.58.19-2.14.56-.56.38-.84.88-.84,1.5s.26,1.07.77,1.31c.52.24,1.62.49,3.33.75,1.63.25,2.86.55,3.7.89.83.34,1.53.91,2.07,1.7.55.79.83,1.72.83,2.77,0,1.56-.6,2.81-1.8,3.73-1.2.92-2.75,1.38-4.66,1.38-1.79,0-3.26-.41-4.39-1.22v.94h-2.95Z"/>
      </g>
      <rect class="cls-1" x="31.11" y="65.64" width="10.09" height="10.09"/>
      <rect class="cls-1" x="44.12" y="65.64" width="10.09" height="10.09"/>
      <rect class="cls-1" x="70.14" y="65.64" width="10.09" height="10.09" transform="translate(-27.96 73.86) rotate(-45)"/>
      <rect class="cls-1" x="31.11" y="78.8" width="10.09" height="10.09"/>
      <rect class="cls-1" x="44.12" y="78.8" width="10.09" height="10.09"/>
      <rect class="cls-1" x="57.13" y="78.8" width="10.09" height="10.09"/>
      <circle class="cls-1" cx="88.19" cy="70.69" r="5.05"/>
      <path class="cls-1" d="M32.94,54.39v3.82h-11.9v-3.82h2.88v-15.8h-2.88v-2.97h11.9c2.77,0,4.91.65,6.42,1.95,1.51,1.3,2.27,3.05,2.27,5.25,0,1.26-.27,2.4-.8,3.42s-1.21,1.81-2.04,2.35c-.83.55-1.78.92-2.84,1.12-1.07.2-2.4.3-4,.3h-2.16v4.38h3.15ZM29.79,46.24h.88c2.01,0,3.31-.33,3.89-.98.58-.66.87-1.47.87-2.44,0-.82-.2-1.52-.6-2.1-.4-.58-.86-.94-1.38-1.07-.52-.14-1.37-.2-2.55-.2h-1.1v6.8Z"/>
      <path class="cls-1" d="M43.16,58.21v-3.82h3.23v-15.8h-3.23v-2.97h12.41v2.97h-3.3v15.8h6.67v-6.98h4.4v10.8h-20.19Z"/>
      <path class="cls-1" d="M87.97,54.39v3.82h-11.11v-3.82h2.89l-1.07-3.88h-5.86l-1.2,3.88h3.02v3.82h-10v-3.82h2.79l4.4-15.8h-3v-2.97h14.75v2.97h-3.04l4.74,15.8h2.7ZM77.75,47.2l-1.88-6.8-2.03,6.8h3.91Z"/>
      <path class="cls-1" d="M91.59,58.21v-3.82h3.17v-6.11l-6.12-9.7h-2.76v-2.97h11.3v2.97h-2.22l3.32,6.35,3.37-6.35h-2.33v-2.97h9.96v2.97h-2.78l-5.85,9.7v6.11h3.15v3.82h-12.2Z"/>
    </g>
  </g>
</svg>